<svg width="24" height="32" viewBox="0 0 24 32" fill="none" xmlns="http://www.w3.org/2000/svg">
<path d="M7.05 22.2259C6.80917 22.2259 6.60725 22.1445 6.44425 21.9817C6.28142 21.8187 6.2 21.6168 6.2 21.3759V20.2759H18.475L19.3 21.1009V11.2259H20.3917C20.6456 11.2259 20.8521 11.3074 21.0113 11.4704C21.1704 11.6333 21.25 11.8351 21.25 12.0759V23.1009C21.25 23.5696 21.0292 23.8951 20.5875 24.0774C20.1458 24.2598 19.7583 24.1843 19.425 23.8509L17.8 22.2259H7.05ZM6.2 18.2759L4.575 19.9009C4.24167 20.2343 3.85417 20.3098 3.4125 20.1274C2.97083 19.9451 2.75 19.6196 2.75 19.1509V8.67593C2.75 8.43509 2.8315 8.23326 2.9945 8.07043C3.15733 7.90743 3.35917 7.82593 3.6 7.82593H16.45C16.6908 7.82593 16.8927 7.90743 17.0555 8.07043C17.2185 8.23326 17.3 8.43509 17.3 8.67593V17.4259C17.3 17.6668 17.2185 17.8686 17.0555 18.0314C16.8927 18.1944 16.6908 18.2759 16.45 18.2759H6.2ZM15.95 16.9259V9.17593H4.1V18.7259L5.9 16.9259H15.95Z" fill="#848894"/>
</svg>
