<svg width="24" height="32" viewBox="0 0 24 32" fill="none" xmlns="http://www.w3.org/2000/svg">
<path d="M6.05001 22.6249H9.32501V17.5249C9.32501 17.2291 9.43026 16.9759 9.64076 16.7654C9.8511 16.5551 10.1042 16.4499 10.4 16.4499H13.6C13.8958 16.4499 14.149 16.5551 14.3595 16.7654C14.5698 16.9759 14.675 17.2291 14.675 17.5249V22.6249H17.95V14.0749C17.95 13.9416 17.9208 13.8207 17.8625 13.7124C17.8042 13.6041 17.725 13.5082 17.625 13.4249L12.475 9.5499C12.3417 9.43324 12.1833 9.3749 12 9.3749C11.8167 9.3749 11.6583 9.43324 11.525 9.5499L6.37501 13.4249C6.27501 13.5082 6.19585 13.6041 6.13751 13.7124C6.07918 13.8207 6.05001 13.9416 6.05001 14.0749V22.6249ZM4.70001 22.6249V14.0749C4.70001 13.7336 4.77751 13.4102 4.93251 13.1047C5.08735 12.7992 5.30151 12.5476 5.57501 12.3499L10.725 8.4499C11.1197 8.16657 11.5433 8.0249 11.996 8.0249C12.4487 8.0249 12.875 8.16657 13.275 8.4499L18.425 12.3499C18.6985 12.5476 18.9127 12.7992 19.0675 13.1047C19.2225 13.4102 19.3 13.7336 19.3 14.0749V22.6249C19.3 23.0082 19.1708 23.3291 18.9125 23.5874C18.6542 23.8457 18.3333 23.9749 17.95 23.9749H14.4C14.1042 23.9749 13.8511 23.8697 13.6408 23.6592C13.4303 23.4488 13.325 23.1957 13.325 22.8999V17.7999H10.675V22.8999C10.675 23.1957 10.5698 23.4488 10.3595 23.6592C10.149 23.8697 9.89585 23.9749 9.60001 23.9749H6.05001C5.66668 23.9749 5.34585 23.8457 5.08751 23.5874C4.82918 23.3291 4.70001 23.0082 4.70001 22.6249Z" fill="#848894"/>
</svg>
