<svg width="24" height="32" viewBox="0 0 24 32" fill="none" xmlns="http://www.w3.org/2000/svg">
    <path d="M5.87498 24.5C5.25831 24.5 4.74581 24.2958 4.33748 23.8875C3.92914 23.4792 3.72498 22.9667 3.72498 22.35V9.65C3.72498 9.03333 3.92914 8.52083 4.33748 8.1125C4.74581 7.70417 5.25831 7.5 5.87498 7.5H11.575C11.7583 7.5 11.9166 7.56667 12.05 7.7C12.1833 7.83333 12.25 7.99167 12.25 8.175C12.25 8.35833 12.1833 8.51667 12.05 8.65C11.9166 8.78333 11.7583 8.85 11.575 8.85H5.87498C5.67498 8.85 5.49164 8.93333 5.32498 9.1C5.15831 9.26667 5.07498 9.45 5.07498 9.65V22.35C5.07498 22.55 5.15831 22.7333 5.32498 22.9C5.49164 23.0667 5.67498 23.15 5.87498 23.15H11.575C11.7583 23.15 11.9166 23.2167 12.05 23.35C12.1833 23.4833 12.25 23.6417 12.25 23.825C12.25 24.0083 12.1833 24.1667 12.05 24.3C11.9166 24.4333 11.7583 24.5 11.575 24.5H5.87498ZM18.025 16.65H9.99998C9.81664 16.65 9.65831 16.5833 9.52498 16.45C9.39164 16.3167 9.32498 16.1583 9.32498 15.975C9.32498 15.7917 9.39164 15.6333 9.52498 15.5C9.65831 15.3667 9.81664 15.3 9.99998 15.3H18.025L16.1 13.375C15.95 13.225 15.8708 13.0542 15.8625 12.8625C15.8541 12.6708 15.9333 12.5 16.1 12.35C16.2666 12.2 16.4333 12.1292 16.6 12.1375C16.7666 12.1458 16.925 12.225 17.075 12.375L19.95 15.25C20.1666 15.4667 20.275 15.7167 20.275 16C20.275 16.2833 20.1666 16.5333 19.95 16.75L17.1 19.6C16.9666 19.7333 16.8041 19.8083 16.6125 19.825C16.4208 19.8417 16.25 19.7667 16.1 19.6C15.9333 19.45 15.8458 19.2875 15.8375 19.1125C15.8291 18.9375 15.9083 18.7667 16.075 18.6L18.025 16.65Z" fill="#DB4931"/>
</svg>