<svg width="24" height="32" viewBox="0 0 24 32" fill="none" xmlns="http://www.w3.org/2000/svg">
<path d="M10.4125 25.5251C10.2625 25.5251 10.1212 25.4733 9.98873 25.3698C9.85607 25.2663 9.77232 25.1348 9.73748 24.9751L9.43748 22.5501C9.18748 22.4668 8.88098 22.3297 8.51798 22.1388C8.15498 21.9478 7.86148 21.7433 7.63748 21.5251L5.38748 22.4751C5.23748 22.5418 5.08332 22.5501 4.92498 22.5001C4.76665 22.4501 4.65415 22.3501 4.58748 22.2001L2.93748 19.2501C2.87082 19.1001 2.84582 18.9543 2.86248 18.8126C2.87915 18.6709 2.95415 18.5584 3.08748 18.4751L4.98748 17.0251C4.97082 16.8596 4.94998 16.6846 4.92498 16.5001C4.89998 16.3156 4.88748 16.1406 4.88748 15.9751C4.88748 15.8349 4.89998 15.6808 4.92498 15.5126C4.94998 15.3444 4.97082 15.1486 4.98748 14.9251L3.11248 13.5251C2.97915 13.4418 2.90832 13.3209 2.89998 13.1626C2.89165 13.0043 2.92082 12.8501 2.98748 12.7001L4.61248 9.9001C4.67915 9.76676 4.78748 9.6751 4.93748 9.6251C5.08748 9.5751 5.23748 9.5751 5.38748 9.6251L7.51248 10.5001C7.79582 10.2668 8.11248 10.0543 8.46248 9.8626C8.81248 9.67093 9.13748 9.51676 9.43748 9.4001L9.73748 7.0251C9.75415 6.85843 9.83332 6.7251 9.97498 6.6251C10.1167 6.5251 10.2625 6.4751 10.4125 6.4751H13.6125C13.7625 6.4751 13.9083 6.5251 14.05 6.6251C14.1917 6.7251 14.2708 6.85843 14.2875 7.0251L14.5625 9.4501C14.9125 9.6001 15.2333 9.75426 15.525 9.9126C15.8167 10.0709 16.1125 10.2751 16.4125 10.5251L18.6375 9.6251C18.7828 9.55843 18.9323 9.55426 19.086 9.6126C19.2397 9.67093 19.3568 9.76676 19.4375 9.9001L21.0625 12.7251C21.1292 12.8751 21.1542 13.0251 21.1375 13.1751C21.1208 13.3251 21.0458 13.4418 20.9125 13.5251L18.8875 15.0501C18.9375 15.2334 18.9667 15.4084 18.975 15.5751C18.9833 15.7418 18.9875 15.8918 18.9875 16.0251C18.9875 16.1418 18.9792 16.2834 18.9625 16.4501C18.9458 16.6168 18.9292 16.8168 18.9125 17.0501L20.8125 18.4751C20.9458 18.5584 21.0292 18.6751 21.0625 18.8251C21.0958 18.9751 21.0792 19.1251 21.0125 19.2751L19.4125 22.1751C19.3458 22.3251 19.2264 22.4251 19.0542 22.4751C18.8819 22.5251 18.718 22.5168 18.5625 22.4501L16.2875 21.5001C16.0042 21.7334 15.725 21.9334 15.45 22.1001C15.175 22.2668 14.8875 22.4001 14.5875 22.5001L14.2875 24.9751C14.2527 25.1348 14.1689 25.2663 14.0362 25.3698C13.9037 25.4733 13.7625 25.5251 13.6125 25.5251H10.4125ZM10.9875 24.1751H12.9587L13.3375 21.4251C13.8542 21.2918 14.3201 21.1078 14.7352 20.8731C15.1506 20.6383 15.5847 20.3056 16.0375 19.8751L18.4875 20.9251L19.5125 19.2251L17.3625 17.5751C17.4458 17.2751 17.5042 16.9982 17.5375 16.7443C17.5708 16.4905 17.5875 16.2363 17.5875 15.9818C17.5875 15.7107 17.575 15.4668 17.55 15.2501C17.525 15.0334 17.4708 14.7584 17.3875 14.4251L19.5625 12.7751L18.5875 11.0751L16.0375 12.1001C15.7542 11.7668 15.3426 11.4435 14.8027 11.1303C14.2627 10.817 13.766 10.6153 13.3125 10.5251L13.0375 7.8251H10.9625L10.7125 10.4751C10.1458 10.5918 9.63748 10.7793 9.18748 11.0376C8.73748 11.2959 8.29582 11.6501 7.86248 12.1001L5.43748 11.0751L4.41248 12.7751L6.51248 14.4001C6.42915 14.6834 6.37082 14.9584 6.33748 15.2251C6.30415 15.4918 6.28748 15.7453 6.28748 15.9856C6.28748 16.1953 6.30415 16.4334 6.33748 16.7001C6.37082 16.9668 6.42082 17.2668 6.48748 17.6001L4.41248 19.2251L5.43748 20.9251L7.86248 19.9001C8.32915 20.3334 8.78332 20.6709 9.22498 20.9126C9.66665 21.1543 10.1542 21.3418 10.6875 21.4751L10.9875 24.1751ZM11.8875 18.8751C12.6975 18.8751 13.3833 18.5943 13.945 18.0326C14.5067 17.4709 14.7875 16.7851 14.7875 15.9751C14.7875 15.1651 14.5067 14.4793 13.945 13.9176C13.3833 13.3559 12.6975 13.0751 11.8875 13.0751C11.0875 13.0751 10.4042 13.3559 9.83748 13.9176C9.27082 14.4793 8.98748 15.1651 8.98748 15.9751C8.98748 16.7851 9.27082 17.4709 9.83748 18.0326C10.4042 18.5943 11.0875 18.8751 11.8875 18.8751Z" fill="#848894"/>
</svg>
