<svg width="24" height="32" viewBox="0 0 24 32" fill="none" xmlns="http://www.w3.org/2000/svg">
<path d="M12.0043 25.5C10.6908 25.5 9.45567 25.2507 8.299 24.7522C7.14233 24.2537 6.13625 23.5772 5.28075 22.7225C4.42508 21.8678 3.74775 20.8629 3.24875 19.7078C2.74958 18.5524 2.5 17.3179 2.5 16.0043C2.5 14.6908 2.74925 13.4557 3.24775 12.299C3.74625 11.1423 4.42283 10.1362 5.2775 9.28075C6.13217 8.42508 7.13708 7.74775 8.29225 7.24875C9.44758 6.74958 10.6821 6.5 11.9957 6.5C13.3092 6.5 14.5443 6.74925 15.701 7.24775C16.8577 7.74625 17.8638 8.42283 18.7193 9.2775C19.5749 10.1322 20.2522 11.1371 20.7512 12.2923C21.2504 13.4476 21.5 14.6821 21.5 15.9957C21.5 17.3092 21.2508 18.5443 20.7523 19.701C20.2538 20.8577 19.5772 21.8638 18.7225 22.7193C17.8678 23.5749 16.8629 24.2522 15.7078 24.7512C14.5524 25.2504 13.3179 25.5 12.0043 25.5ZM12.2 24.175C14.3833 24.0583 16.2542 23.231 17.8125 21.693C19.3708 20.155 20.15 18.2573 20.15 16C20.15 13.7427 19.3792 11.8533 17.8375 10.332C16.2958 8.81067 14.4167 7.975 12.2 7.825V24.175Z" fill="#848894"/>
</svg>
